<svg width="32" height="32" viewBox="0 0 32 32" fill="none"
                                xmlns="http://www.w3.org/2000/svg">
                                <path
                                    d="M8.30625 31.6375C6.7 31.6375 5.3875 30.3625 5.3875 28.8V26.4125L4.125 25.4562V17.1812H5.3875V4.83748C5.3875 3.27498 6.69375 1.99998 8.30625 1.99998H11.8625V1.35623H19.6562L20.325 1.99998H25.4875C27.0937 1.99998 28.4062 3.27498 28.4062 4.83748V9.86248L28.9 10.3375V17.925H28.4062V28.7937C28.4062 30.3562 27.1 31.6312 25.4875 31.6312H8.30625V31.6375Z"
                                    fill="#BFBFBF" />
                                <path
                                    d="M7.28751 30.6437C5.68126 30.6437 4.36876 29.3687 4.36876 27.8062V25.4187L3.10626 24.4687V16.1875H4.36876V3.84374C4.36876 2.28124 5.67501 1.00624 7.28751 1.00624H10.8438V0.362488H18.6375L19.3 1.00624H24.4625C26.0688 1.00624 27.3813 2.28124 27.3813 3.84374V8.87499L27.875 9.34999V16.9375H27.3813V27.8062C27.3813 29.3687 26.075 30.6437 24.4625 30.6437H7.28751V30.6437Z"
                                    fill="white" />
                                <path
                                    d="M24.325 29.6812H7.42501C6.28126 29.6812 5.35626 28.7562 5.35626 27.6125V4.03747C5.35626 2.89372 6.28126 1.96872 7.42501 1.96872H24.325C25.4688 1.96872 26.3938 2.89372 26.3938 4.03747V27.6125C26.3938 28.7562 25.4688 29.6812 24.325 29.6812Z"
                                    fill="#16896B" />
                                <path
                                    d="M6.17502 27.3187V4.33746C6.17502 3.46871 6.87502 2.76871 7.74377 2.76871H24C24.8688 2.76871 25.5688 3.46871 25.5688 4.33746V27.3187C25.5688 28.1875 24.8688 28.8875 24 28.8875H7.74377C6.88127 28.8875 6.17502 28.1812 6.17502 27.3187Z"
                                    fill="#49EBC8" />
                                <path d="M26.8813 15.975V9.74998L18.225 1.32498H11.8313L26.8813 15.975Z"
                                    fill="#2EBC9A" />
                                <path d="M11.8313 1.32498V1.96873H12.4938L11.8313 1.32498Z" fill="#096047" />
                                <path d="M26.3938 15.5V15.975H26.8813L26.3938 15.5Z" fill="#096047" />
                                <path
                                    d="M17.3375 23.9937H4.10001V17.1562H17.3438C19.2063 17.1562 20.7188 18.6687 20.7188 20.5312V20.6187C20.7125 22.4812 19.2063 23.9937 17.3375 23.9937Z"
                                    fill="#2EBC9A" />
                                <path d="M4.10001 23.9937L5.35626 24.9437V23.9937H4.10001Z" fill="#096047" />
                                <path
                                    d="M10.0938 21.3125C10.0938 21.1875 10.05 21.0812 9.95627 21C9.86252 20.9187 9.70002 20.85 9.46877 20.7812C9.13127 20.6937 8.87502 20.575 8.69377 20.425C8.51252 20.2812 8.41877 20.0875 8.41877 19.85C8.41877 19.6062 8.51877 19.4062 8.71877 19.2437C8.91877 19.0875 9.17502 19.0062 9.48752 19.0062C9.82502 19.0062 10.0938 19.0937 10.2938 19.2687C10.4938 19.4437 10.5938 19.6625 10.5875 19.9187L10.5813 19.9312H10.0813C10.0813 19.7687 10.025 19.6437 9.91877 19.55C9.81252 19.4562 9.66252 19.4062 9.48127 19.4062C9.30627 19.4062 9.16877 19.4437 9.07502 19.525C8.98127 19.6062 8.93127 19.7125 8.93127 19.8375C8.93127 19.9562 8.98127 20.05 9.08752 20.125C9.19377 20.2 9.36252 20.275 9.60627 20.3375C9.93127 20.425 10.1813 20.55 10.35 20.7C10.5188 20.8562 10.6063 21.05 10.6063 21.2875C10.6063 21.5375 10.5063 21.7375 10.3 21.8875C10.1 22.0375 9.83127 22.1125 9.50002 22.1125C9.18127 22.1125 8.90627 22.0312 8.67502 21.8687C8.43752 21.7062 8.32502 21.475 8.33127 21.175L8.33752 21.1625H8.83752C8.83752 21.3437 8.90002 21.4812 9.03127 21.575C9.16252 21.6687 9.31877 21.7125 9.50002 21.7125C9.68127 21.7125 9.82502 21.675 9.93127 21.6C10.0438 21.5437 10.0938 21.4375 10.0938 21.3125Z"
                                    fill="white" />
                                <path
                                    d="M12.2813 21.2687L12.3375 21.4875H12.35L12.4063 21.2687L13.15 19.0562H13.7063L12.5938 22.0875H12.1L10.9875 19.0562H11.5438L12.2813 21.2687Z"
                                    fill="white" />
                                <path
                                    d="M16.4688 21.6812C16.3813 21.8 16.2438 21.9062 16.0563 21.9937C15.8688 22.0875 15.625 22.1312 15.3313 22.1312C14.9625 22.1312 14.6625 22.0187 14.425 21.7875C14.1875 21.5562 14.0688 21.2562 14.0688 20.8937V20.2625C14.0688 19.8937 14.1813 19.6 14.4125 19.3687C14.6438 19.1375 14.9375 19.025 15.3 19.025C15.6625 19.025 15.9438 19.1125 16.15 19.2937C16.35 19.4687 16.45 19.7062 16.4438 19.9875L16.4375 20H15.9438C15.9438 19.8312 15.8875 19.6937 15.7813 19.5875C15.675 19.4812 15.5188 19.4312 15.3125 19.4312C15.1 19.4312 14.925 19.5125 14.7938 19.6687C14.6625 19.825 14.5938 20.025 14.5938 20.2687V20.9062C14.5938 21.15 14.6625 21.35 14.8 21.5062C14.9375 21.6625 15.1188 21.7437 15.3375 21.7437C15.5063 21.7437 15.6375 21.725 15.7313 21.6875C15.8313 21.65 15.9 21.6062 15.95 21.5562V20.9312H15.3V20.55H16.475V21.6812H16.4688Z"
                                    fill="white" />
                            </svg>