<svg width="28" height="22" viewBox="0 0 28 22" fill="none" xmlns="http://www.w3.org/2000/svg">
<path d="M19.6274 17.1325C19.7049 17.1373 19.7884 17.1471 19.8719 17.1471C21.0549 17.1483 22.2391 17.1412 23.422 17.1531C23.6811 17.1556 23.7586 17.0671 23.7453 16.8189C23.7284 16.4956 23.7416 16.1711 23.7416 15.7716C25.0844 16.7596 26.3824 17.7137 27.7143 18.6944C26.3921 19.6679 25.0941 20.6232 23.7416 21.6197C23.7416 21.2432 23.7416 20.932 23.7416 20.6208C23.7416 20.2188 23.7416 20.2176 23.3506 20.2176C15.7867 20.2176 8.2216 20.2176 0.657729 20.2176C0.292067 20.2176 0.292067 20.2176 0.292067 19.8495C0.292067 19.0516 0.30297 18.2537 0.28601 17.457C0.279953 17.1979 0.3635 17.1398 0.611715 17.141C4.67879 17.1483 8.74587 17.1542 12.813 17.1435C14.898 17.1375 16.5434 16.2741 17.6319 14.4773C19.5959 11.2324 17.5484 6.98244 13.7852 6.43516C10.8793 6.01259 8.17801 7.96319 7.68521 10.9188C7.63315 11.2263 7.62952 11.5423 7.59925 11.9128C8.07509 11.8487 8.50614 11.7893 8.99409 11.7239C8.23007 13.2011 7.4927 14.6274 6.74442 16.0731C5.59779 14.8914 4.46812 13.7278 3.36387 12.5897C3.64114 12.5436 4.00922 12.4904 4.37367 12.4141C4.44269 12.3995 4.5444 12.2882 4.54198 12.224C4.52138 11.4503 4.57467 10.6851 4.72602 9.92588C4.73086 9.90287 4.71996 9.87624 4.71269 9.83144C3.9741 9.70552 3.28879 9.43914 2.66765 9.01052C1.1493 7.95954 0.35502 6.0041 0.727946 4.2218C1.13356 2.27967 2.59863 0.827923 4.49233 0.469528C5.72008 0.238264 6.85823 0.458556 7.91526 1.10762C8.10172 1.22264 8.21554 1.2396 8.33783 1.03982C8.40927 0.922384 8.51703 0.827939 8.64053 0.685061C8.7943 1.30499 8.93839 1.88496 9.08126 2.46494C9.12969 2.65989 9.16723 2.85845 9.22414 3.05097C9.28589 3.25922 9.22292 3.35246 9.00256 3.33793C8.36568 3.29434 7.72758 3.25559 7.0907 3.21322C6.9333 3.20225 6.77711 3.18538 6.5749 3.16599C6.73231 2.96743 6.87518 2.78943 7.03137 2.5945C6.68754 2.33289 6.30856 2.20212 5.91384 2.13795C4.00562 1.82556 2.32382 3.29184 2.36256 5.22307C2.39162 6.70509 3.64117 8.0297 5.11713 8.15563C5.30844 8.1714 5.37503 8.07451 5.44889 7.93163C6.49502 5.92412 8.07027 4.50506 10.2134 3.76647C15.1716 2.05682 20.3478 5.12015 21.3031 10.1341C21.7741 12.6029 21.2377 14.8574 19.74 16.8782C19.6988 16.9339 19.6613 16.9933 19.625 17.0526C19.6176 17.0636 19.6275 17.0853 19.6334 17.1313L19.6274 17.1325Z" fill="black"/>
</svg>
