<svg width="32" height="32" viewBox="0 0 32 32" fill="none" xmlns="http://www.w3.org/2000/svg">
<path d="M4 2H28.69L26.45 27.19L16.35 30L6.25001 27.19L4 2Z" fill="#F0DB4F"/>
<path d="M16 4H26.09L24.17 25.53L16 27.8V4Z" fill="#FFF329" fill-opacity="0.59"/>
<path d="M16 7V8.92V10.084V10.091H23.456H23.466L23.528 9.397L23.669 7.83L23.743 7H16Z" fill="white"/>
<path d="M16 13.256H11.91L12.5 10.091H16V7H15.989H9.5L9.083 16.347H16V13.256Z" fill="#EBEBEB"/>
<path d="M16 13.2564V16.3438H19.7796L19.448 20.1L16 21.03V24.246L22.337 22.489L22.383 21.967L23.109 14.355V13.2564L16 13.2564Z" fill="white"/>
<path d="M16 21.0291L12.323 20.465L12.103 18H10.43H9L9.433 22.852L16 24.2384V21.0291Z" fill="#EBEBEB"/>
</svg>
