<svg width="32" height="32" viewBox="0 0 32 32" fill="none" xmlns="http://www.w3.org/2000/svg">
<path d="M28.1333 14.7333L17.2667 3.86667C16.9333 3.53334 16.4667 3.33334 16 3.33334C15.5333 3.33334 15.0667 3.53334 14.7333 3.86667L12.4 6.2L15.1333 8.93334C15.4 8.8 15.6667 8.73334 16 8.73334C17.1333 8.73334 18 9.6 18 10.7333C18 11.0667 17.9333 11.3333 17.8 11.6L20.4667 14.2667C20.7333 14.1333 21 14.0667 21.3333 14.0667C22.4667 14.0667 23.3333 14.9333 23.3333 16.0667C23.3333 17.2 22.4667 18.0667 21.3333 18.0667C20.2 18.0667 19.3333 17.2 19.3333 16.0667C19.3333 15.7333 19.4 15.4667 19.5333 15.2L16.8667 12.5333C16.8 12.5333 16.7333 12.6 16.6667 12.6V19.5333C17.4667 19.8 18 20.5333 18 21.4C18 22.5333 17.1333 23.4 16 23.4C14.8667 23.4 14 22.5333 14 21.4C14 20.5333 14.5333 19.8 15.3333 19.5333V12.5333C14.5333 12.2667 14 11.5333 14 10.6667C14 10.3333 14.0667 10.0667 14.2 9.8L11.4667 7.06667L3.86668 14.7333C3.53334 15.0667 3.33334 15.5333 3.33334 16C3.33334 16.4667 3.53334 16.9333 3.86668 17.2667L14.7333 28.1333C15.0667 28.4667 15.5333 28.6667 16 28.6667C16.4667 28.6667 16.9333 28.4667 17.2667 28.1333L28.1333 17.2667C28.4667 16.9333 28.6667 16.4667 28.6667 16C28.6667 15.5333 28.4667 15.0667 28.1333 14.7333Z" fill="#F4511E"/>
</svg>
